Unthinkable.2010.mp4
********************

TiTLE......  Unthinkable
YEAR.......  2010
GENRE......  Drama | Thriller
iMDB RATE..  User Rating: 7.3/10 (4,697 votes)
iMDB URL...  http://www.imdb.com/title/tt0914863/
*************************************************

Video
Duration                         : 1h 37mn
Bit rate mode                    : Variable
Overall bit rate                 : 2 121 Kbps
Bit rate                         : 1 702 Kbps
Maximum bit rate                 : 11.5 Mbps
Width                            : 1 280 pixels
Height                           : 688 pixels
Frame rate                       : 23.976 fps
Stream size                      : 1.15 GiB (80%)

Audio
Format                           : AAC
Format/Info                      : Advanced Audio Codec
Bit rate mode                    : Variable
Bit rate                         : 423 Kbps
Maximum bit rate                 : 619 Kbps
Channel(s)                       : 6 channels
Channel positions                : Front: L C R, Rear: L R, LFE
Sampling rate                    : 48.0 KHz
Resolution                       : 16 bits
Stream size                      : 294 MiB (20%)
Language                         : English

Subtitles: English, Dutch (*.srt)
*********************************
